<svg width="19" height="19" viewBox="0 0 19 19" fill="none" xmlns="http://www.w3.org/2000/svg">
<path fill-rule="evenodd" clip-rule="evenodd" d="M5.78937 0.804C6.74937 0.7605 7.05575 0.75 9.5 0.75C11.9443 0.75 12.2506 0.7605 13.2106 0.804C14.6739 0.87075 15.9583 1.22925 16.9895 2.2605C18.0211 3.29212 18.3792 4.57687 18.446 6.03937C18.4895 6.99937 18.5 7.30575 18.5 9.75C18.5 12.1943 18.4895 12.5006 18.446 13.4606C18.3792 14.9239 18.0208 16.2083 16.9895 17.2395C15.9579 18.2711 14.6727 18.6292 13.2106 18.696C12.2506 18.7395 11.9443 18.75 9.5 18.75C7.05575 18.75 6.74937 18.7395 5.78937 18.696C4.32612 18.6292 3.04175 18.2708 2.0105 17.2395C0.978875 16.2079 0.62075 14.9231 0.554 13.4606C0.5105 12.5006 0.5 12.1943 0.5 9.75C0.5 7.30575 0.5105 6.99937 0.554 6.03937C0.62075 4.57612 0.97925 3.29175 2.0105 2.2605C3.04212 1.22887 4.32687 0.87075 5.78937 0.804ZM13.1368 2.424C12.1876 2.3805 11.903 2.3715 9.5 2.3715C7.097 2.3715 6.81238 2.38087 5.86325 2.424C4.83913 2.47088 3.8885 2.676 3.15725 3.40725C2.426 4.1385 2.22088 5.08913 2.174 6.11325C2.1305 7.06238 2.1215 7.347 2.1215 9.75C2.1215 12.153 2.13087 12.4376 2.174 13.3868C2.22088 14.4109 2.426 15.3615 3.15725 16.0927C3.8885 16.824 4.83913 17.0291 5.86325 17.076C6.812 17.1195 7.09663 17.1285 9.5 17.1285C11.9034 17.1285 12.188 17.1191 13.1368 17.076C14.1609 17.0291 15.1115 16.824 15.8427 16.0927C16.574 15.3615 16.7791 14.4109 16.826 13.3868C16.8695 12.4376 16.8785 12.153 16.8785 9.75C16.8785 7.347 16.8691 7.06238 16.826 6.11325C16.7791 5.08913 16.574 4.1385 15.8427 3.40725C15.1115 2.676 14.1609 2.47088 13.1368 2.424Z" fill="#9DA4AE"/>
<path fill-rule="evenodd" clip-rule="evenodd" d="M5.40912 10.1592C5.40912 7.67403 7.4236 5.65918 9.90912 5.65918C12.3946 5.65918 14.4091 7.67366 14.4091 10.1592C14.4091 12.6447 12.3946 14.6592 9.90912 14.6592C7.4236 14.6592 5.40912 12.6443 5.40912 10.1592ZM6.98799 10.1592C6.98799 11.7724 8.29592 13.0803 9.90912 13.0803C11.5223 13.0803 12.8302 11.7724 12.8302 10.1592C12.8302 8.54599 11.5223 7.23805 9.90912 7.23805C8.29592 7.23805 6.98799 8.54599 6.98799 10.1592Z" fill="#9DA4AE"/>
<circle cx="14" cy="5.24998" r="1.22727" fill="#9DA4AE"/>
</svg>
