<svg width="18" height="16" viewBox="0 0 18 16" fill="none" xmlns="http://www.w3.org/2000/svg">
<path d="M17.5 2.48969C16.8625 2.79897 16.1896 2.99227 15.4812 3.10825C16.1896 2.64433 16.7563 1.90979 17.0042 1.02062C16.3313 1.44588 15.5875 1.75515 14.7729 1.94845C14.1354 1.21392 13.2146 0.75 12.2229 0.75C10.3104 0.75 8.75208 2.45103 8.75208 4.53866C8.75208 4.84794 8.7875 5.11856 8.85833 5.38918C5.98958 5.23454 3.40417 3.7268 1.66875 1.40722C1.38542 1.98711 1.20833 2.60567 1.20833 3.30155C1.20833 4.61598 1.81042 5.77577 2.76667 6.47165C2.2 6.43299 1.66875 6.27835 1.17292 6.00773V6.04639C1.17292 7.90206 2.37708 9.44845 3.97083 9.79639C3.6875 9.87371 3.36875 9.91237 3.05 9.91237C2.8375 9.91237 2.58958 9.87371 2.37708 9.83505C2.8375 11.3428 4.1125 12.4639 5.63542 12.4639C4.43125 13.4691 2.94375 14.0876 1.31458 14.0876C1.03125 14.0876 0.747917 14.0876 0.5 14.049C2.05833 15.1314 3.86458 15.75 5.84792 15.75C12.2583 15.75 15.7646 9.95103 15.7646 4.92526C15.7646 4.77062 15.7646 4.57732 15.7646 4.42268C16.4375 3.9201 17.0396 3.26289 17.5 2.48969Z" fill="#9DA4AE"/>
</svg>
