<svg width="20" height="20" viewBox="0 0 20 20" fill="none" xmlns="http://www.w3.org/2000/svg">
<path d="M19.5 10.3073C19.4992 5.2226 15.5424 1.02848 10.4959 0.763221C5.44945 0.497958 1.07986 4.25441 0.552526 9.31134C0.0251969 14.3683 3.52473 18.9555 8.51601 19.75V13.0703H6.10428V10.3073H8.51601V8.20142C8.51601 5.8058 9.93443 4.48253 12.1039 4.48253C12.8164 4.49247 13.5272 4.55477 14.2307 4.66892V7.02153H13.0325C12.6189 6.96626 12.2028 7.10325 11.9017 7.39381C11.6006 7.68437 11.4471 8.09697 11.4847 8.51506V10.3073H14.1196L13.6981 13.0703H11.4847V19.75C16.1013 19.0151 19.5007 15.0103 19.5 10.3073Z" fill="#F64B4B"/>
</svg>
