<svg width="19" height="19" viewBox="0 0 19 19" fill="none" xmlns="http://www.w3.org/2000/svg">
<path fill-rule="evenodd" clip-rule="evenodd" d="M1.25 0.75H17.75C18.1625 0.75 18.5 1.0875 18.5 1.5V18C18.5 18.4125 18.1625 18.75 17.75 18.75H1.25C0.8375 18.75 0.5 18.4125 0.5 18V1.5C0.5 1.0875 0.8375 0.75 1.25 0.75ZM3.1625 16.0875H5.825V7.5H3.1625V16.0875ZM4.5125 6.3375C3.65 6.3375 2.975 5.6625 2.975 4.8C2.975 3.9375 3.65 3.2625 4.5125 3.2625C5.375 3.2625 6.05 3.9375 6.05 4.8C6.05 5.625 5.375 6.3375 4.5125 6.3375ZM13.175 16.0875H15.8V11.3625C15.8 9.0375 15.3125 7.275 12.6125 7.275C11.3375 7.275 10.4375 7.9875 10.1 8.6625H10.0625V7.5H7.5125V16.0875H10.175V11.85C10.175 10.725 10.4 9.6375 11.7875 9.6375C13.175 9.6375 13.175 10.9125 13.175 11.925V16.0875Z" fill="#9DA4AE"/>
</svg>
