<svg width="20" height="20" viewBox="0 0 20 20" fill="none" xmlns="http://www.w3.org/2000/svg">
<path d="M9.99998 18.125C10.9166 18.125 11.6666 17.375 11.6666 16.4583H8.33331C8.33331 17.375 9.08331 18.125 9.99998 18.125ZM15 13.125V8.95833C15 6.4 13.6416 4.25833 11.25 3.69167V3.125C11.25 2.43333 10.6916 1.875 9.99998 1.875C9.30831 1.875 8.74998 2.43333 8.74998 3.125V3.69167C6.36665 4.25833 4.99998 6.39167 4.99998 8.95833V13.125L3.33331 14.7917V15.625H16.6666V14.7917L15 13.125ZM13.3333 13.9583H6.66665V8.95833C6.66665 6.89167 7.92498 5.20833 9.99998 5.20833C12.075 5.20833 13.3333 6.89167 13.3333 8.95833V13.9583Z" fill="#0D121C"/>
</svg>
