<svg width="20" height="20" viewBox="0 0 20 20" fill="none" xmlns="http://www.w3.org/2000/svg">
<path d="M13.1083 2.5H6.89167L2.5 6.89167V13.1083L6.89167 17.5H13.1083L17.5 13.1083V6.89167L13.1083 2.5ZM15.8333 12.4167L12.4167 15.8333H7.58333L4.16667 12.4167V7.58333L7.58333 4.16667H12.4167L15.8333 7.58333V12.4167Z" fill="#0D121C"/>
<path d="M10 14.1667C10.4602 14.1667 10.8333 13.7936 10.8333 13.3333C10.8333 12.8731 10.4602 12.5 10 12.5C9.53976 12.5 9.16667 12.8731 9.16667 13.3333C9.16667 13.7936 9.53976 14.1667 10 14.1667Z" fill="#0D121C"/>
<path d="M9.16667 5.83333H10.8333V11.6667H9.16667V5.83333Z" fill="#0D121C"/>
</svg>
